<?xml version="1.0" encoding="UTF-8" standalone="no"?>
<svg width="35px" height="35px" viewBox="0 0 35 35" version="1.1" xmlns="http://www.w3.org/2000/svg" xmlns:xlink="http://www.w3.org/1999/xlink" xmlns:sketch="http://www.bohemiancoding.com/sketch/ns">
    <!-- Generator: Sketch 3.3.2 (12043) - http://www.bohemiancoding.com/sketch -->
    <title>ES6 Logo</title>
    <desc>Created with Sketch.</desc>
    <defs></defs>
    <g id="List" stroke="none" stroke-width="1" fill="none" fill-rule="evenodd" sketch:type="MSPage">
        <g id="Mobile-Portrait" sketch:type="MSArtboardGroup" transform="translate(-4.000000, -3.000000)">
            <g id="header" sketch:type="MSLayerGroup" transform="translate(4.000000, 3.000000)">
                <g id="ES6-Logo" transform="translate(0.000000, 0.000000)" sketch:type="MSShapeGroup">
                    <rect id="Rectangle-1" fill="#E0E300" x="0" y="0" width="35" height="35"></rect>
                    <path d="M15.0761902,32.1353125 L9.0531044,32.1353125 L9.0531044,21.3307095 L15.0761902,21.3307095 L15.0761902,22.4466432 L10.3094536,22.4466432 L10.3094536,25.9274695 L14.7879689,25.9274695 L14.7879689,27.0360129 L10.3094536,27.0360129 L10.3094536,31.0119885 L15.0761902,31.0119885 L15.0761902,32.1353125 Z M23.5676326,29.26049 C23.5676326,30.2113786 23.2227559,30.9528636 22.5329921,31.484967 C21.8432283,32.0170705 20.9071344,32.2831183 19.7246822,32.2831183 C18.4436923,32.2831183 17.4583302,32.1180701 16.7685664,31.7879689 L16.7685664,30.5759615 C17.211986,30.7631831 17.6948134,30.9109874 18.2170631,31.0193788 C18.7393129,31.1277703 19.2566279,31.1819652 19.7690239,31.1819652 C20.6065942,31.1819652 21.2372259,31.0230755 21.660938,30.7052915 C22.08465,30.3875075 22.2965028,29.9453263 22.2965028,29.3787346 C22.2965028,29.0042914 22.221369,28.6975975 22.071099,28.4586436 C21.920829,28.2196897 21.6695617,27.9992149 21.3172895,27.7972127 C20.9650173,27.5952104 20.4292267,27.3661137 19.7099016,27.1099158 C18.7048172,26.7502532 17.9867346,26.3240841 17.5556322,25.8313957 C17.1245299,25.3387073 16.9089819,24.6957586 16.9089819,23.9025302 C16.9089819,23.0698868 17.2218344,22.4072308 17.8475487,21.9145424 C18.473263,21.421854 19.3009671,21.1755135 20.3306859,21.1755135 C21.4047466,21.1755135 22.3925721,21.3725859 23.2941919,21.7667366 L22.9025066,22.8604994 C22.0107405,22.4860562 21.1436219,22.2988374 20.3011247,22.2988374 C19.6359954,22.2988374 19.1162169,22.4417149 18.7417737,22.7274742 C18.3673305,23.0132335 18.1801117,23.4098417 18.1801117,23.9173108 C18.1801117,24.291754 18.249087,24.5984479 18.3870398,24.8374018 C18.5249926,25.0763557 18.7577843,25.2955987 19.0854221,25.4951376 C19.4130599,25.6946764 19.9143629,25.9151511 20.589346,26.1565685 C21.7225294,26.560573 22.5021971,26.9941323 22.9283726,27.4572594 C23.3545481,27.9203865 23.5676326,28.5214573 23.5676326,29.26049 L23.5676326,29.26049 Z M25.1565448,27.5163817 C25.1565448,25.3928946 25.5691652,23.80523 26.3944183,22.7533402 C27.2196714,21.7014505 28.4402886,21.1755135 30.0563066,21.1755135 C30.6130445,21.1755135 31.0515306,21.2223182 31.3717781,21.315929 L31.3717781,22.3727403 C30.992408,22.2495682 30.5588487,22.1879831 30.0710872,22.1879831 C28.9132694,22.1879831 28.028907,22.5488719 27.4179733,23.2706605 C26.8070397,23.992449 26.4720166,25.1268471 26.412894,26.6738887 L26.5015775,26.6738887 C27.0435347,25.8264646 27.9007997,25.4027589 29.0733981,25.4027589 C30.0439943,25.4027589 30.8088816,25.6959042 31.368083,26.2822034 C31.9272843,26.8685026 32.2068808,27.6641824 32.2068808,28.6692668 C32.2068808,29.7925964 31.9001869,30.6757271 31.2867898,31.3186855 C30.6733927,31.9616439 29.8444569,32.2831183 28.7999574,32.2831183 C27.6815547,32.2831183 26.7947289,31.8631077 26.1394533,31.023074 C25.4841777,30.1830402 25.1565448,29.0141545 25.1565448,27.5163817 L25.1565448,27.5163817 Z M28.7851768,31.2410875 C29.4847944,31.2410875 30.0279752,31.0206127 30.4147356,30.5796566 C30.801496,30.1387005 30.9948734,29.5019102 30.9948734,28.6692668 C30.9948734,27.9548686 30.8150448,27.3932122 30.4553822,26.9842809 C30.0957197,26.5753495 29.5586974,26.3708868 28.8442992,26.3708868 C28.4008796,26.3708868 27.9944177,26.4620328 27.6249014,26.6443275 C27.2553851,26.8266223 26.9610082,27.0778896 26.7417619,27.3981371 C26.5225155,27.7183845 26.412894,28.0509442 26.412894,28.3958261 C26.412894,28.9032952 26.5114302,29.376269 26.7085056,29.8147617 C26.9055809,30.2532543 27.1851774,30.6005945 27.5473034,30.8567924 C27.9094294,31.1129904 28.3220497,31.2410875 28.7851768,31.2410875 L28.7851768,31.2410875 Z" id="ES6" fill="#003459"></path>
                </g>
            </g>
        </g>
    </g>
</svg>